<svg width="285" height="80" viewBox="0 0 285 80" fill="none" xmlns="http://www.w3.org/2000/svg">
  <g fill="#7C8470">
    <rect x="6" y="10" width="17" height="6" rx="1.5"/>
    <rect x="6" y="20" width="17" height="6" rx="1.5"/>
    <rect x="6" y="30" width="17" height="6" rx="1.5"/>
    <rect x="6" y="40" width="17" height="6" rx="1.5"/>
    <rect x="6" y="50" width="17" height="6" rx="1.5"/>
    <rect x="6" y="60" width="17" height="6" rx="1.5"/>
    <rect x="28" y="10" width="17" height="6" rx="1.5"/>
    <rect x="28" y="30" width="17" height="6" rx="1.5"/>
    <rect x="28" y="40" width="17" height="6" rx="1.5"/>
    <rect x="28" y="60" width="17" height="6" rx="1.5"/>
    <rect x="50" y="10" width="17" height="6" rx="1.5"/>
    <rect x="50" y="20" width="17" height="6" rx="1.5"/>
    <rect x="50" y="30" width="17" height="6" rx="1.5"/>
    <rect x="50" y="40" width="17" height="6" rx="1.5"/>
    <rect x="50" y="50" width="17" height="6" rx="1.5"/>
    <rect x="50" y="60" width="17" height="6" rx="1.5"/>
    <path d="M23 20H30L36 28L42 20H50L36 38L23 20Z" fill="#F2F0E8"/>
    <path d="M23 52H30L36 44L42 52H50L36 34L23 52Z" fill="#F2F0E8"/>
  </g>
  <text x="115" y="54" fill="#2B2C31" font-family="Segoe UI, Arial, sans-serif" font-size="42" font-weight="700" letter-spacing="9">MAX</text>
</svg>
